{"glyphs":{":":{"x_min":0,"x_max":244,"ha":244,"o":"m 78 492 q 78 541 122 541 q 166 541 166 492 q 166 442 122 442 q 78 442 78 492 z m 78 38 q 78 87 122 87 q 166 87 166 38 q 166 -11 122 -11 q 78 -11 78 38 z"},"$":{"x_min":0,"x_max":571,"ha":571,"o":"m 253 -58 l 253 29 q 194 30 145 38 q 96 47 64 60 l 64 117 q 98 103 149 92 q 200 81 253 80 l 253 340 q 194 359 152 382 q 109 404 86 438 q 63 471 63 522 q 63 598 116 640 q 168 683 253 688 l 253 759 l 297 759 l 297 688 q 391 685 466 651 l 447 602 q 410 618 372 627 q 333 636 297 638 l 297 382 q 358 362 402 340 q 445 319 468 286 q 492 254 492 203 q 492 126 439 82 q 386 38 297 31 l 297 -58 z m 253 398 l 253 636 q 192 633 156 605 q 119 577 119 526 q 119 472 155 445 q 191 418 253 398 z m 297 83 q 362 88 399 117 q 436 146 436 200 q 436 251 402 276 q 368 302 297 325 z"},"?":{"x_min":0,"x_max":424,"ha":424,"o":"m 142 188 l 142 207 q 142 250 149 280 q 156 310 174 334 q 193 358 226 384 q 264 413 288 436 q 312 460 324 486 q 336 512 336 550 q 336 612 298 642 q 260 673 196 673 q 152 673 116 662 q 80 652 46 635 l 25 683 q 67 702 108 713 q 148 724 198 724 q 288 724 340 679 q 391 634 391 552 q 391 504 376 470 q 360 437 332 410 q 304 383 266 354 q 236 331 220 310 q 203 290 196 264 q 190 239 190 202 l 190 188 z m 125 38 q 125 87 168 87 q 212 87 212 38 q 212 -11 168 -11 q 125 -11 125 38 z"},"<":{"x_min":0,"x_max":571,"ha":571,"o":"m 518 127 l 53 338 l 53 372 l 518 597 l 518 545 l 117 357 l 518 179 z"},"'":{"x_min":0,"x_max":198,"ha":198,"o":"m 130 714 l 118 456 l 81 456 l 69 714 z"},"=":{"x_min":0,"x_max":571,"ha":571,"o":"m 56 430 l 56 477 l 514 477 l 514 430 z m 56 228 l 56 276 l 514 276 l 514 228 z"},"a":{"x_min":0,"x_max":536,"ha":536,"o":"m 276 541 q 366 541 410 497 q 454 453 454 358 l 454 0 l 411 0 l 400 90 l 398 90 q 370 45 328 18 q 286 -10 212 -10 q 136 -10 92 28 q 47 66 47 139 q 47 218 112 260 q 176 302 301 307 l 398 312 l 398 349 q 398 428 366 460 q 335 493 274 493 q 233 493 195 482 q 157 472 119 452 l 101 498 q 138 517 183 529 q 228 541 276 541 z m 398 268 l 308 264 q 206 260 156 230 q 106 199 106 138 q 106 89 137 64 q 168 38 222 38 q 305 38 350 85 q 396 132 398 217 z"},"L":{"x_min":0,"x_max":515,"ha":515,"o":"m 100 0 l 100 714 l 158 714 l 158 52 l 492 52 l 492 0 z"},"3":{"x_min":0,"x_max":571,"ha":571,"o":"m 482 549 q 482 478 440 433 q 398 388 332 376 l 332 372 q 416 362 460 318 q 504 273 504 198 q 504 106 439 48 q 374 -10 244 -10 q 186 -10 136 0 q 87 10 46 30 l 46 85 q 87 65 140 52 q 193 39 244 39 q 346 39 395 82 q 444 126 444 200 q 444 278 386 312 q 328 345 231 345 l 155 345 l 155 395 l 232 395 q 315 395 369 434 q 423 472 423 546 q 423 609 382 642 q 341 674 273 674 q 216 674 170 657 q 125 640 81 610 l 52 650 q 93 682 148 703 q 203 724 272 724 q 372 724 427 676 q 482 629 482 549 z"},";":{"x_min":0,"x_max":244,"ha":244,"o":"m 78 492 q 78 541 120 541 q 166 541 166 492 q 166 442 120 442 q 78 442 78 492 z m 149 116 l 154 104 q 142 50 121 -13 q 100 -76 78 -129 l 34 -129 q 52 -64 66 -2 q 80 61 88 116 z"},"J":{"x_min":0,"x_max":252,"ha":252,"o":"m -12 -182 q -38 -182 -56 -178 q -74 -174 -88 -170 l -88 -118 q -73 -122 -54 -126 q -35 -130 -13 -130 q 99 -130 99 4 l 99 714 l 157 714 l 157 6 q 157 -82 114 -132 q 72 -182 -12 -182 z"},"V":{"x_min":0,"x_max":582,"ha":582,"o":"m 582 714 l 320 0 l 262 0 l 0 714 l 61 714 l 250 199 q 263 163 274 130 q 284 97 291 68 q 298 97 308 129 q 318 161 332 200 l 520 714 z"},"\"":{"x_min":0,"x_max":364,"ha":364,"o":"m 130 714 l 118 456 l 81 456 l 69 714 z m 295 714 l 283 456 l 246 456 l 234 714 z"},"7":{"x_min":0,"x_max":571,"ha":571,"o":"m 160 0 l 454 662 l 51 662 l 51 714 l 516 714 l 516 672 l 222 0 z"},"S":{"x_min":0,"x_max":546,"ha":546,"o":"m 496 186 q 496 122 464 78 q 432 35 376 12 q 320 -10 248 -10 q 184 -10 136 -1 q 88 8 54 22 l 54 79 q 92 64 142 52 q 193 41 252 41 q 334 41 386 76 q 437 112 437 182 q 437 224 418 252 q 398 279 358 300 q 317 320 254 341 q 194 362 151 386 q 108 411 85 448 q 62 486 62 543 q 62 602 92 642 q 121 682 172 703 q 224 724 290 724 q 342 724 389 714 q 436 704 478 686 l 458 636 q 374 672 288 672 q 214 672 168 640 q 121 607 121 544 q 121 498 141 470 q 161 443 199 424 q 237 405 292 386 q 355 364 400 340 q 446 315 471 279 q 496 243 496 186 z"},"}":{"x_min":0,"x_max":358,"ha":358,"o":"m 34 -158 l 34 -110 q 96 -108 127 -84 q 158 -60 158 -6 l 158 152 q 158 203 180 235 q 202 267 252 276 l 252 280 q 202 289 180 321 q 158 353 158 404 l 158 561 q 158 616 127 640 q 96 665 34 666 l 34 714 q 121 714 168 677 q 215 640 215 567 l 215 408 q 215 351 244 326 q 272 302 331 302 l 331 254 q 272 254 244 230 q 215 205 215 148 l 215 -12 q 215 -84 167 -121 q 119 -158 34 -158 z"},"Z":{"x_min":0,"x_max":575,"ha":575,"o":"m 536 0 l 37 0 l 37 43 l 452 662 l 57 662 l 57 714 l 524 714 l 524 671 l 110 52 l 536 52 z"},"x":{"x_min":0,"x_max":504,"ha":504,"o":"m 216 273 l 30 532 l 97 532 l 250 312 l 404 532 l 469 532 l 285 273 l 480 0 l 414 0 l 250 234 l 87 0 l 22 0 z"},")":{"x_min":0,"x_max":278,"ha":278,"o":"m 237 278 q 237 151 200 38 q 163 -74 91 -158 l 34 -158 q 107 -66 143 45 q 179 156 179 278 q 179 400 142 511 q 106 622 33 714 l 91 714 q 163 627 200 516 q 237 405 237 278 z"},"&":{"x_min":0,"x_max":717,"ha":717,"o":"m 304 725 q 378 725 423 686 q 468 646 468 576 q 468 510 424 466 q 381 423 312 386 l 530 170 q 558 203 578 247 q 598 291 610 342 l 668 342 q 638 216 566 132 l 698 0 l 622 0 l 528 94 q 482 48 424 19 q 366 -10 280 -10 q 180 -10 119 40 q 58 89 58 182 q 58 236 78 274 q 98 311 136 340 q 173 368 226 396 q 184 440 157 480 q 130 520 130 572 q 130 642 177 684 q 224 725 304 725 z m 302 676 q 250 676 218 648 q 186 621 186 573 q 186 532 209 498 q 232 464 274 421 q 342 455 377 490 q 412 525 412 576 q 412 622 382 649 q 352 676 302 676 z m 262 359 q 216 335 184 312 q 151 288 134 258 q 117 228 117 184 q 117 117 162 79 q 207 41 281 41 q 354 41 404 66 q 453 91 492 130 z"},"_":{"x_min":0,"x_max":418,"ha":418,"o":"m 420 -135 l -2 -135 l -2 -90 l 420 -90 z"},"v":{"x_min":0,"x_max":469,"ha":469,"o":"m 204 0 l 0 532 l 60 532 l 192 179 q 205 146 216 114 q 226 82 232 57 l 236 57 q 243 82 254 114 q 264 147 276 179 l 408 532 l 469 532 l 265 0 z"},"O":{"x_min":0,"x_max":768,"ha":768,"o":"m 705 358 q 705 249 669 166 q 633 83 562 36 q 490 -10 384 -10 q 276 -10 204 36 q 133 83 98 166 q 62 250 62 359 q 62 468 98 550 q 135 632 208 678 q 280 725 387 725 q 490 725 560 680 q 631 636 668 554 q 705 472 705 358 z m 123 358 q 123 263 151 192 q 179 120 237 80 q 295 41 384 41 q 474 41 532 80 q 589 120 616 191 q 644 262 644 358 q 644 506 580 590 q 515 673 387 673 q 298 673 239 634 q 180 594 152 523 q 123 452 123 358 z"},"(":{"x_min":0,"x_max":278,"ha":278,"o":"m 41 274 q 41 402 78 515 q 115 628 187 714 l 245 714 q 172 622 136 510 q 99 397 99 275 q 99 154 136 44 q 172 -66 244 -158 l 187 -158 q 115 -72 78 38 q 41 148 41 274 z"},"C":{"x_min":0,"x_max":623,"ha":623,"o":"m 404 672 q 316 672 253 632 q 190 593 156 522 q 123 452 123 358 q 123 262 154 191 q 184 120 244 81 q 304 42 394 42 q 446 42 490 50 q 533 58 572 70 l 572 20 q 535 6 490 -2 q 446 -10 388 -10 q 280 -10 208 36 q 135 82 98 165 q 62 248 62 359 q 62 465 102 548 q 143 630 220 677 q 296 724 404 724 q 509 724 592 684 l 569 634 q 491 672 404 672 z"},"W":{"x_min":0,"x_max":900,"ha":900,"o":"m 878 714 l 684 0 l 626 0 l 476 525 q 456 599 446 642 q 443 622 436 594 q 430 566 421 534 l 272 0 l 214 0 l 23 714 l 83 714 l 212 224 q 223 182 232 148 q 240 113 246 80 q 252 114 260 150 q 268 186 280 227 l 418 714 l 476 714 l 618 224 q 632 181 640 146 q 648 110 654 78 q 658 111 666 146 q 674 180 686 223 l 818 714 z"},"A":{"x_min":0,"x_max":608,"ha":608,"o":"m 547 0 l 452 246 l 156 246 l 59 0 l 0 0 l 280 716 l 334 716 l 608 0 z m 434 298 l 338 556 q 334 570 324 600 q 314 630 306 653 q 298 627 289 600 q 280 574 274 555 l 175 298 z"},"f":{"x_min":0,"x_max":309,"ha":309,"o":"m 295 486 l 168 486 l 168 0 l 111 0 l 111 486 l 13 486 l 13 517 l 111 534 l 111 586 q 111 678 150 722 q 190 765 270 765 q 298 765 321 760 q 344 756 363 750 l 350 702 q 332 708 312 712 q 291 716 270 716 q 216 716 192 686 q 168 655 168 587 l 168 532 l 295 532 z"},"Q":{"x_min":0,"x_max":768,"ha":768,"o":"m 705 358 q 705 267 680 193 q 654 119 604 70 q 553 20 478 2 l 634 -170 l 552 -170 l 414 -8 q 406 -9 399 -10 q 392 -10 384 -10 q 276 -10 204 36 q 133 83 98 166 q 62 250 62 359 q 62 468 98 550 q 135 632 208 678 q 280 725 387 725 q 490 725 560 680 q 631 636 668 554 q 705 472 705 358 z m 123 358 q 123 263 151 192 q 179 120 237 80 q 295 41 384 41 q 474 41 532 80 q 589 120 616 191 q 644 262 644 358 q 644 506 580 590 q 515 673 387 673 q 298 673 239 634 q 180 594 152 523 q 123 452 123 358 z"},"w":{"x_min":0,"x_max":736,"ha":736,"o":"m 514 0 l 406 346 q 396 379 387 408 q 378 438 372 464 l 370 464 q 364 438 356 408 q 348 378 337 345 l 224 0 l 164 0 l 14 532 l 73 532 l 163 203 q 175 159 184 126 q 192 92 196 66 l 198 66 q 204 90 212 123 q 220 156 234 196 l 344 532 l 402 532 l 508 196 q 518 160 528 126 q 538 92 542 66 l 546 66 q 549 90 558 124 q 566 159 577 203 l 664 532 l 722 532 l 577 0 z"},"-":{"x_min":0,"x_max":322,"ha":322,"o":"m 40 244 l 40 296 l 282 296 l 282 244 z"},"E":{"x_min":0,"x_max":553,"ha":553,"o":"m 492 0 l 100 0 l 100 714 l 492 714 l 492 662 l 158 662 l 158 400 l 473 400 l 473 349 l 158 349 l 158 52 l 492 52 z"},"s":{"x_min":0,"x_max":468,"ha":468,"o":"m 422 141 q 422 68 368 29 q 315 -10 216 -10 q 160 -10 118 0 q 75 10 46 24 l 46 79 q 81 61 126 50 q 171 38 218 38 q 296 38 331 64 q 366 91 366 137 q 366 181 330 204 q 293 228 220 253 q 171 270 134 287 q 96 304 75 332 q 54 359 54 406 q 54 470 106 506 q 158 542 245 542 q 293 542 334 532 q 376 523 410 509 l 390 462 q 359 476 320 485 q 281 494 242 494 q 179 494 144 472 q 109 450 109 408 q 109 376 126 358 q 143 339 175 326 q 207 312 253 296 q 300 280 338 262 q 377 244 400 216 q 422 188 422 141 z"},">":{"x_min":0,"x_max":571,"ha":571,"o":"m 53 179 l 453 356 l 53 545 l 53 597 l 518 372 l 518 338 l 53 127 z"},"l":{"x_min":0,"x_max":232,"ha":232,"o":"m 145 0 l 88 0 l 88 760 l 145 760 z"},"8":{"x_min":0,"x_max":571,"ha":571,"o":"m 284 724 q 376 724 432 680 q 489 637 489 557 q 489 492 446 450 q 404 409 338 380 q 416 348 464 303 q 512 258 512 183 q 512 122 482 79 q 453 36 402 13 q 350 -10 284 -10 q 179 -10 118 41 q 56 92 56 178 q 56 230 78 268 q 100 305 138 332 q 176 358 224 377 q 184 396 152 420 q 119 443 100 476 q 80 510 80 556 q 80 608 106 646 q 133 684 179 704 q 225 724 284 724 z m 284 676 q 220 676 178 644 q 136 612 136 554 q 136 495 178 462 q 221 428 288 403 q 355 431 394 465 q 432 499 432 556 q 432 614 392 645 q 352 676 284 676 z m 113 178 q 113 115 158 76 q 202 37 282 37 q 362 37 409 76 q 456 114 456 182 q 456 240 414 278 q 373 317 298 344 l 276 352 q 202 325 158 286 q 113 246 113 178 z"},"\\":{"x_min":0,"x_max":347,"ha":347,"o":"m 68 714 l 336 0 l 278 0 l 12 714 z"},"e":{"x_min":0,"x_max":552,"ha":552,"o":"m 290 542 q 358 542 404 510 q 450 479 473 424 q 496 369 496 298 l 496 258 l 116 258 q 116 153 165 96 q 214 40 306 40 q 356 40 393 48 q 430 56 474 76 l 474 24 q 434 6 395 -2 q 356 -10 304 -10 q 185 -10 121 63 q 57 136 57 262 q 57 343 84 406 q 112 470 164 506 q 216 542 290 542 z m 289 494 q 216 494 170 445 q 125 396 117 306 l 436 306 q 436 390 400 442 q 365 494 289 494 z"},"b":{"x_min":0,"x_max":599,"ha":599,"o":"m 144 760 l 144 550 q 144 522 143 489 q 142 456 140 436 l 144 436 q 164 481 210 512 q 255 542 325 542 q 428 542 485 472 q 542 403 542 267 q 542 141 484 66 q 427 -10 317 -10 q 250 -10 208 18 q 165 46 145 86 l 140 86 l 130 0 l 87 0 l 87 760 z m 318 493 q 225 493 184 435 q 144 377 144 267 l 144 260 q 144 152 182 96 q 221 39 310 39 q 396 39 440 98 q 483 158 483 268 q 483 493 318 493 z"},"%":{"x_min":0,"x_max":812,"ha":812,"o":"m 196 724 q 267 724 303 666 q 339 608 339 501 q 339 392 302 334 q 266 276 195 276 q 127 276 90 334 q 54 392 54 501 q 54 610 90 667 q 126 724 196 724 z m 630 714 l 234 0 l 182 0 l 578 714 z m 196 680 q 104 680 104 501 q 104 320 195 320 q 289 320 289 501 q 289 589 266 634 q 244 680 196 680 z m 615 438 q 686 438 722 380 q 758 322 758 215 q 758 106 721 48 q 684 -10 614 -10 q 545 -10 509 48 q 473 106 473 215 q 473 324 509 381 q 545 438 615 438 z m 615 394 q 523 394 523 215 q 523 34 614 34 q 708 34 708 215 q 708 303 686 348 q 663 394 615 394 z"},"m":{"x_min":0,"x_max":894,"ha":894,"o":"m 644 542 q 723 542 768 497 q 812 452 812 355 l 812 0 l 756 0 l 756 352 q 756 424 724 458 q 692 492 636 492 q 560 492 519 448 q 478 403 478 310 l 478 0 l 422 0 l 422 352 q 422 424 390 458 q 358 492 302 492 q 226 492 185 446 q 144 399 144 302 l 144 0 l 88 0 l 88 532 l 134 532 l 142 448 l 146 448 q 166 487 206 514 q 247 542 310 542 q 368 542 408 517 q 448 492 464 442 l 468 442 q 490 490 536 516 q 582 542 644 542 z"},"#":{"x_min":0,"x_max":646,"ha":646,"o":"m 474 449 l 438 264 l 582 264 l 582 218 l 429 218 l 386 0 l 338 0 l 381 218 l 210 218 l 168 0 l 121 0 l 162 218 l 26 218 l 26 264 l 170 264 l 207 449 l 64 449 l 64 494 l 215 494 l 257 714 l 306 714 l 264 494 l 435 494 l 477 714 l 524 714 l 482 494 l 619 494 l 619 449 z m 218 264 l 390 264 l 426 449 l 254 449 z"},",":{"x_min":0,"x_max":226,"ha":226,"o":"m 154 116 l 158 104 q 146 50 126 -13 q 106 -76 83 -129 l 40 -129 q 77 4 92 116 z"},"n":{"x_min":0,"x_max":596,"ha":596,"o":"m 326 542 q 417 542 465 495 q 513 448 513 348 l 513 0 l 456 0 l 456 344 q 456 420 422 456 q 387 492 320 492 q 144 492 144 290 l 144 0 l 88 0 l 88 532 l 134 532 l 142 440 l 146 440 q 167 484 212 513 q 258 542 326 542 z"},"h":{"x_min":0,"x_max":596,"ha":596,"o":"m 144 760 l 144 516 q 144 476 141 440 l 145 440 q 165 484 211 513 q 257 542 325 542 q 416 542 464 495 q 513 448 513 348 l 513 0 l 456 0 l 456 344 q 456 420 422 456 q 387 492 320 492 q 144 492 144 290 l 144 0 l 88 0 l 88 760 z"},"z":{"x_min":0,"x_max":463,"ha":463,"o":"m 422 0 l 40 0 l 40 37 l 352 486 l 62 486 l 62 532 l 420 532 l 420 492 l 108 46 l 422 46 z"},"B":{"x_min":0,"x_max":632,"ha":632,"o":"m 100 714 l 298 714 q 430 714 493 673 q 556 632 556 540 q 556 478 520 434 q 484 390 417 378 l 417 374 q 495 362 536 320 q 576 279 576 203 q 576 134 544 89 q 513 44 456 22 q 400 0 326 0 l 100 0 z m 158 399 l 311 399 q 409 399 452 433 q 496 467 496 534 q 496 603 449 633 q 402 663 298 663 l 158 663 z m 158 349 l 158 50 l 321 50 q 515 50 515 206 q 515 280 466 314 q 416 349 312 349 z"},"K":{"x_min":0,"x_max":588,"ha":588,"o":"m 588 0 l 518 0 l 247 370 l 158 285 l 158 0 l 100 0 l 100 714 l 158 714 l 158 343 q 178 366 200 390 q 222 413 244 437 l 508 714 l 580 714 l 290 410 z"},"R":{"x_min":0,"x_max":600,"ha":600,"o":"m 278 714 q 406 714 470 669 q 535 624 535 518 q 535 436 492 390 q 448 344 383 324 l 579 0 l 510 0 l 328 308 l 158 308 l 158 0 l 100 0 l 100 714 z m 273 662 l 158 662 l 158 358 l 293 358 q 380 358 428 399 q 475 440 475 516 q 475 598 426 630 q 376 662 273 662 z"},"T":{"x_min":0,"x_max":530,"ha":530,"o":"m 294 0 l 236 0 l 236 662 l 6 662 l 6 714 l 524 714 l 524 662 l 294 662 z"},"P":{"x_min":0,"x_max":589,"ha":589,"o":"m 278 714 q 535 714 535 512 q 535 409 468 350 q 402 292 262 292 l 158 292 l 158 0 l 100 0 l 100 714 z m 272 663 l 158 663 l 158 342 l 256 342 q 360 342 418 378 q 475 415 475 509 q 475 589 426 626 q 376 663 272 663 z"},"|":{"x_min":0,"x_max":543,"ha":543,"o":"m 246 762 l 295 762 l 295 -246 l 246 -246 z"},"t":{"x_min":0,"x_max":340,"ha":340,"o":"m 238 38 q 260 38 280 42 q 301 45 315 50 l 315 4 q 299 -2 278 -6 q 256 -10 230 -10 q 164 -10 128 28 q 92 65 92 148 l 92 486 l 13 486 l 13 518 l 92 536 l 112 659 l 148 659 l 148 532 l 312 532 l 312 486 l 148 486 l 148 150 q 148 38 238 38 z"},"M":{"x_min":0,"x_max":872,"ha":872,"o":"m 410 0 l 154 652 l 150 652 q 152 625 153 590 q 154 554 154 514 l 154 0 l 100 0 l 100 714 l 188 714 l 434 88 l 437 88 l 686 714 l 772 714 l 772 0 l 714 0 l 714 520 q 714 554 715 589 q 716 624 718 652 l 715 652 l 457 0 z"},"g":{"x_min":0,"x_max":599,"ha":599,"o":"m 282 542 q 345 542 386 518 q 428 494 453 451 l 456 451 l 465 532 l 511 532 l 511 -17 q 511 -122 458 -181 q 404 -240 282 -240 q 222 -240 176 -230 q 130 -220 92 -204 l 92 -149 q 130 -168 178 -180 q 227 -191 284 -191 q 371 -191 412 -145 q 454 -99 454 -20 l 454 11 q 454 32 455 53 q 456 74 457 94 l 454 94 q 432 42 386 16 q 340 -10 276 -10 q 172 -10 114 60 q 57 130 57 262 q 57 391 114 466 q 172 542 282 542 z m 288 492 q 202 492 159 432 q 116 371 116 261 q 116 152 158 95 q 201 38 282 38 q 348 38 386 65 q 423 92 439 139 q 455 186 455 246 l 455 280 q 455 382 418 437 q 380 492 288 492 z"},"j":{"x_min":0,"x_max":232,"ha":232,"o":"m 78 686 q 78 729 116 729 q 156 729 156 686 q 156 642 116 642 q 78 642 78 686 z m 16 -240 q -27 -240 -52 -229 l -52 -180 q -24 -191 11 -191 q 47 -191 68 -169 q 88 -147 88 -100 l 88 532 l 144 532 l 144 -100 q 144 -168 110 -204 q 77 -240 16 -240 z"},"i":{"x_min":0,"x_max":232,"ha":232,"o":"m 116 729 q 156 729 156 686 q 156 642 116 642 q 78 642 78 686 q 78 729 116 729 z m 144 532 l 144 0 l 88 0 l 88 532 z"},"y":{"x_min":0,"x_max":469,"ha":469,"o":"m 0 532 l 61 532 l 188 201 q 204 157 216 122 q 228 88 235 61 l 238 61 q 245 84 257 120 q 269 156 285 200 l 409 532 l 470 532 l 230 -95 q 203 -165 166 -204 q 129 -242 66 -242 q 46 -242 31 -239 q 16 -236 2 -232 l 2 -184 q 28 -193 59 -193 q 101 -193 128 -167 q 154 -141 174 -88 l 209 2 z"},"@":{"x_min":0,"x_max":888,"ha":888,"o":"m 834 354 q 834 289 816 233 q 798 177 761 142 q 724 108 669 108 q 623 108 596 134 q 568 161 564 204 l 562 204 q 519 108 414 108 q 339 108 298 156 q 258 204 258 290 q 258 354 284 404 q 311 455 358 484 q 406 513 470 513 q 510 513 547 507 q 584 501 610 491 l 602 317 q 601 299 600 282 q 600 266 600 252 q 600 198 618 175 q 637 152 672 152 q 710 152 735 178 q 760 205 772 250 q 785 296 785 354 q 785 450 747 520 q 709 589 640 626 q 570 664 474 664 q 360 664 277 618 q 194 571 149 486 q 104 400 104 284 q 104 126 188 38 q 271 -49 424 -49 q 480 -49 534 -38 q 587 -26 632 -7 l 632 -55 q 588 -73 536 -84 q 484 -94 424 -94 q 309 -94 226 -49 q 144 -4 100 80 q 55 165 55 282 q 55 412 107 508 q 159 604 253 657 q 347 710 474 710 q 582 710 663 667 q 744 624 789 544 q 834 464 834 354 z m 310 288 q 310 220 338 186 q 367 152 420 152 q 483 152 516 195 q 548 238 552 319 l 558 456 q 541 462 518 466 q 496 469 470 469 q 418 469 382 445 q 347 421 328 380 q 310 339 310 288 z"},".":{"x_min":0,"x_max":244,"ha":244,"o":"m 78 38 q 78 87 122 87 q 166 87 166 38 q 166 -11 122 -11 q 78 -11 78 38 z"},"p":{"x_min":0,"x_max":599,"ha":599,"o":"m 326 542 q 428 542 486 474 q 543 405 543 269 q 543 133 484 62 q 424 -10 321 -10 q 250 -10 208 20 q 165 50 145 92 l 141 92 q 142 66 144 37 q 145 8 145 -18 l 145 -236 l 88 -236 l 88 532 l 135 532 l 142 432 l 145 432 q 165 476 208 509 q 252 542 326 542 z m 318 492 q 230 492 188 436 q 146 381 145 276 l 145 266 q 145 152 186 96 q 228 39 314 39 q 396 39 440 100 q 484 161 484 270 q 484 377 442 434 q 401 492 318 492 z"},"X":{"x_min":0,"x_max":548,"ha":548,"o":"m 547 0 l 480 0 l 274 330 l 63 0 l 0 0 l 240 371 l 20 714 l 86 714 l 276 412 l 466 714 l 530 714 l 309 372 z"},"*":{"x_min":0,"x_max":551,"ha":551,"o":"m 304 759 l 292 560 l 484 622 l 496 562 l 306 526 l 428 366 l 373 334 l 272 506 l 176 334 l 120 366 l 242 526 l 52 562 l 63 622 l 255 560 l 242 759 z"},"Y":{"x_min":0,"x_max":536,"ha":536,"o":"m 268 332 l 472 714 l 536 714 l 298 276 l 298 0 l 240 0 l 240 272 l 0 714 l 64 714 z"},"c":{"x_min":0,"x_max":476,"ha":476,"o":"m 301 -10 q 184 -10 120 62 q 57 133 57 263 q 57 352 89 414 q 121 477 178 510 q 236 542 312 542 q 351 542 384 535 q 418 528 444 516 l 428 466 q 372 491 312 491 q 218 491 167 430 q 116 369 116 264 q 116 164 161 102 q 206 40 300 40 q 340 40 375 48 q 410 56 438 69 l 438 18 q 412 5 378 -2 q 344 -10 301 -10 z"},"!":{"x_min":0,"x_max":246,"ha":246,"o":"m 144 188 l 103 188 l 90 714 l 158 714 z m 78 38 q 78 87 122 87 q 166 87 166 38 q 166 -11 122 -11 q 78 -11 78 38 z"},"/":{"x_min":0,"x_max":347,"ha":347,"o":"m 336 714 l 68 0 l 12 0 l 278 714 z"},"[":{"x_min":0,"x_max":321,"ha":321,"o":"m 296 -158 l 84 -158 l 84 714 l 296 714 l 296 666 l 140 666 l 140 -110 l 296 -110 z"},"6":{"x_min":0,"x_max":571,"ha":571,"o":"m 62 304 q 62 432 94 526 q 127 621 196 673 q 264 725 374 725 q 429 725 468 714 l 468 663 q 450 670 426 673 q 402 676 376 676 q 247 676 184 589 q 122 502 118 342 l 122 342 q 143 381 189 412 q 235 443 311 443 q 407 443 463 386 q 519 328 519 228 q 519 120 460 55 q 402 -10 298 -10 q 222 -10 170 30 q 117 71 90 142 q 62 212 62 304 z m 298 39 q 374 39 418 88 q 462 136 462 228 q 462 306 422 351 q 382 396 302 396 q 247 396 206 374 q 166 352 144 318 q 122 285 122 252 q 122 221 131 184 q 140 148 160 115 q 181 82 214 60 q 248 39 298 39 z"},"r":{"x_min":0,"x_max":394,"ha":394,"o":"m 306 541 q 348 541 378 532 l 370 480 q 354 484 338 486 q 322 488 304 488 q 230 488 188 434 q 145 381 145 292 l 145 0 l 88 0 l 88 532 l 136 532 l 142 432 l 145 432 q 165 477 206 509 q 246 541 306 541 z"},"2":{"x_min":0,"x_max":571,"ha":571,"o":"m 506 0 l 54 0 l 54 48 l 259 261 q 310 314 345 356 q 380 398 398 440 q 416 482 416 534 q 416 601 377 638 q 338 674 272 674 q 224 674 182 657 q 140 640 99 608 l 68 648 q 112 684 164 704 q 216 724 272 724 q 364 724 419 673 q 474 622 474 536 q 474 478 454 430 q 433 382 396 336 q 358 290 306 238 l 127 55 l 127 52 l 506 52 z"},"{":{"x_min":0,"x_max":358,"ha":358,"o":"m 324 -158 q 237 -158 190 -121 q 143 -84 143 -11 l 143 148 q 143 205 114 230 q 86 254 27 254 l 27 302 q 86 303 114 327 q 143 351 143 408 l 143 568 q 143 640 191 677 q 239 714 324 714 l 324 666 q 262 664 231 640 q 200 616 200 560 l 200 404 q 200 353 178 321 q 156 289 106 280 l 106 276 q 156 267 178 236 q 200 204 200 153 l 200 -7 q 200 -60 231 -84 q 262 -109 324 -110 z"},"9":{"x_min":0,"x_max":571,"ha":571,"o":"m 510 411 q 510 283 478 188 q 445 93 376 41 q 306 -11 196 -11 q 172 -11 144 -8 q 116 -5 98 1 l 98 52 q 138 37 196 37 q 324 37 386 124 q 448 212 453 372 l 449 372 q 428 333 381 302 q 334 271 258 271 q 163 271 108 328 q 52 386 52 487 q 52 558 79 612 q 106 665 156 694 q 205 724 274 724 q 351 724 404 684 q 456 644 483 574 q 510 503 510 411 z m 274 674 q 198 674 154 626 q 109 578 109 488 q 109 408 149 363 q 189 318 269 318 q 324 318 365 340 q 406 362 428 396 q 450 429 450 462 q 450 493 441 530 q 432 566 412 599 q 391 632 358 653 q 324 674 274 674 z"}," ":{"x_min":0,"x_max":260,"ha":260,"o":""},"I":{"x_min":0,"x_max":311,"ha":311,"o":"m 260 0 l 50 0 l 50 36 l 126 47 l 126 666 l 50 678 l 50 714 l 260 714 l 260 678 l 184 666 l 184 47 l 260 36 z"},"H":{"x_min":0,"x_max":724,"ha":724,"o":"m 623 0 l 565 0 l 565 348 l 158 348 l 158 0 l 100 0 l 100 714 l 158 714 l 158 400 l 565 400 l 565 714 l 623 714 z"},"4":{"x_min":0,"x_max":571,"ha":571,"o":"m 556 178 l 437 178 l 437 0 l 382 0 l 382 178 l 23 178 l 23 224 l 378 718 l 437 718 l 437 230 l 556 230 z m 382 230 l 382 495 q 382 553 382 586 q 383 620 384 655 l 382 655 q 368 632 356 612 q 344 592 328 569 l 83 230 z"},"~":{"x_min":0,"x_max":571,"ha":571,"o":"m 276 330 q 244 345 220 352 q 196 360 168 360 q 108 360 53 302 l 53 357 q 76 381 107 394 q 138 408 172 408 q 206 408 234 400 q 261 392 298 375 q 330 361 354 354 q 377 346 403 346 q 431 346 461 360 q 491 374 518 402 l 518 350 q 496 326 466 312 q 436 298 400 298 q 368 298 341 306 q 314 314 276 330 z"},"D":{"x_min":0,"x_max":711,"ha":711,"o":"m 648 364 q 648 184 553 92 q 458 0 276 0 l 100 0 l 100 714 l 298 714 q 468 714 558 624 q 648 535 648 364 z m 588 362 q 588 663 287 663 l 158 663 l 158 51 l 272 51 q 588 51 588 362 z"},"^":{"x_min":0,"x_max":571,"ha":571,"o":"m 42 272 l 266 719 l 302 719 l 529 272 l 476 272 l 284 656 l 95 272 z"},"0":{"x_min":0,"x_max":571,"ha":571,"o":"m 515 359 q 515 180 460 85 q 404 -10 285 -10 q 172 -10 114 84 q 56 178 56 359 q 56 468 78 550 q 101 633 152 679 q 202 725 286 725 q 368 725 418 680 q 469 635 492 552 q 515 470 515 359 z m 113 359 q 113 198 154 119 q 196 40 285 40 q 376 40 416 119 q 457 198 457 359 q 457 458 442 529 q 426 600 388 638 q 351 675 286 675 q 221 675 183 637 q 145 599 129 528 q 113 457 113 359 z"},"F":{"x_min":0,"x_max":506,"ha":506,"o":"m 158 0 l 100 0 l 100 714 l 492 714 l 492 662 l 158 662 l 158 368 l 474 368 l 474 316 l 158 316 z"},"`":{"x_min":0,"x_max":265,"ha":265,"o":"m 107 766 q 120 744 140 716 q 161 688 184 661 q 206 634 225 615 l 225 606 l 185 606 q 160 626 132 654 q 104 681 79 709 q 54 737 40 758 l 40 766 z"},"k":{"x_min":0,"x_max":494,"ha":494,"o":"m 144 760 l 144 374 q 144 342 143 308 q 142 273 142 239 l 143 239 q 156 255 172 276 q 189 296 204 312 l 406 532 l 474 532 l 264 304 l 492 0 l 424 0 l 224 266 l 144 184 l 144 0 l 88 0 l 88 760 z"},"u":{"x_min":0,"x_max":596,"ha":596,"o":"m 507 532 l 507 0 l 460 0 l 452 91 l 449 91 q 427 48 382 19 q 336 -10 268 -10 q 80 -10 80 184 l 80 532 l 138 532 l 138 188 q 138 112 172 76 q 206 39 274 39 q 450 39 450 242 l 450 532 z"},"]":{"x_min":0,"x_max":321,"ha":321,"o":"m 25 -110 l 182 -110 l 182 666 l 25 666 l 25 714 l 237 714 l 237 -158 l 25 -158 z"},"U":{"x_min":0,"x_max":722,"ha":722,"o":"m 629 714 l 629 252 q 629 130 558 60 q 487 -10 358 -10 q 230 -10 161 60 q 92 130 92 254 l 92 714 l 150 714 l 150 254 q 150 150 204 96 q 258 41 362 41 q 463 41 518 96 q 572 150 572 248 l 572 714 z"},"o":{"x_min":0,"x_max":590,"ha":590,"o":"m 533 266 q 533 183 506 121 q 478 59 424 24 q 371 -10 294 -10 q 220 -10 167 24 q 114 58 86 120 q 57 182 57 266 q 57 396 122 469 q 186 542 298 542 q 374 542 426 508 q 479 473 506 411 q 533 349 533 266 z m 116 266 q 116 164 159 102 q 202 39 294 39 q 387 39 430 102 q 474 164 474 266 q 474 332 456 383 q 438 434 399 463 q 360 492 297 492 q 206 492 161 432 q 116 372 116 266 z"},"N":{"x_min":0,"x_max":729,"ha":729,"o":"m 628 0 l 566 0 l 153 624 l 150 624 q 152 585 153 542 q 154 498 154 450 l 154 0 l 100 0 l 100 714 l 162 714 l 574 92 l 578 92 q 576 123 575 172 q 574 220 574 261 l 574 714 l 628 714 z"},"+":{"x_min":0,"x_max":571,"ha":571,"o":"m 309 376 l 518 376 l 518 329 l 309 329 l 309 117 l 261 117 l 261 329 l 52 329 l 52 376 l 261 376 l 261 589 l 309 589 z"},"G":{"x_min":0,"x_max":724,"ha":724,"o":"m 387 364 l 646 364 l 646 32 q 594 11 536 0 q 478 -10 410 -10 q 240 -10 151 87 q 62 184 62 356 q 62 464 106 548 q 149 631 231 678 q 313 725 428 725 q 486 725 539 714 q 592 703 638 682 l 614 630 q 523 673 424 673 q 330 673 262 633 q 195 593 158 522 q 122 450 122 356 q 122 202 198 122 q 275 41 422 41 q 474 41 514 48 q 555 56 588 67 l 588 311 l 387 311 z"},"q":{"x_min":0,"x_max":599,"ha":599,"o":"m 454 -236 l 454 -4 q 454 17 454 46 q 455 76 457 97 l 453 97 q 433 51 387 20 q 341 -10 271 -10 q 170 -10 113 60 q 56 129 56 264 q 56 390 113 466 q 170 542 280 542 q 348 542 390 513 q 433 484 453 444 l 456 444 l 464 532 l 510 532 l 510 -236 z m 280 38 q 372 38 412 94 q 453 151 454 256 l 454 270 q 454 380 414 436 q 375 493 286 493 q 200 493 157 432 q 114 371 114 264 q 114 154 155 96 q 196 38 280 38 z"},"d":{"x_min":0,"x_max":599,"ha":599,"o":"m 279 -10 q 172 -10 114 58 q 57 127 57 260 q 57 398 118 470 q 178 542 284 542 q 351 542 393 513 q 435 484 455 440 l 459 440 q 458 464 456 493 q 455 522 455 544 l 455 760 l 512 760 l 512 0 l 466 0 l 458 92 l 455 92 q 434 50 392 20 q 350 -10 279 -10 z m 286 39 q 378 39 417 95 q 456 151 456 256 l 456 266 q 456 376 417 434 q 378 493 290 493 q 204 493 160 432 q 116 372 116 260 q 116 151 158 95 q 200 39 286 39 z"},"1":{"x_min":0,"x_max":571,"ha":571,"o":"m 338 0 l 282 0 l 282 531 q 282 574 282 602 q 282 629 284 654 q 270 640 258 630 q 246 620 226 604 l 126 528 l 96 568 l 290 714 l 338 714 z"},"5":{"x_min":0,"x_max":571,"ha":571,"o":"m 274 432 q 383 432 446 377 q 510 322 510 222 q 510 114 440 52 q 370 -10 250 -10 q 194 -10 148 1 q 101 12 68 30 l 68 87 q 103 66 152 53 q 200 40 251 40 q 342 40 397 86 q 452 131 452 218 q 452 296 404 339 q 357 382 260 382 q 222 382 186 377 q 150 372 120 364 l 89 385 l 118 714 l 464 714 l 464 662 l 166 662 l 146 416 q 167 420 199 426 q 231 432 274 432 z"}}}
